<svg width="57" height="57" viewBox="0 0 57 57" fill="none" xmlns="http://www.w3.org/2000/svg">
<g id="dark_mode_btn">
<rect id="Rectangle 61" width="57" height="57" rx="6" fill="#EAEAEA"/>
<g id="dark_mode">
<mask id="mask0_27_5" style="mask-type:alpha" maskUnits="userSpaceOnUse" x="15" y="15" width="27" height="27">
<rect id="Bounding box" x="15" y="15" width="27" height="27" fill="#D9D9D9"/>
</mask>
<g mask="url(#mask0_27_5)">
<path id="dark_mode_2" d="M28.5 38.625C25.6875 38.625 23.2969 37.6406 21.3281 35.6719C19.3594 33.7031 18.375 31.3125 18.375 28.5C18.375 25.6875 19.3594 23.2969 21.3281 21.3281C23.2969 19.3594 25.6875 18.375 28.5 18.375C28.7625 18.375 29.0203 18.3844 29.2734 18.4031C29.5266 18.4219 29.775 18.45 30.0188 18.4875C29.25 19.0312 28.6359 19.7391 28.1766 20.6109C27.7172 21.4828 27.4875 22.425 27.4875 23.4375C27.4875 25.125 28.0781 26.5594 29.2594 27.7406C30.4406 28.9219 31.875 29.5125 33.5625 29.5125C34.5938 29.5125 35.5406 29.2828 36.4031 28.8234C37.2656 28.3641 37.9688 27.75 38.5125 26.9812C38.55 27.225 38.5781 27.4734 38.5969 27.7266C38.6156 27.9797 38.625 28.2375 38.625 28.5C38.625 31.3125 37.6406 33.7031 35.6719 35.6719C33.7031 37.6406 31.3125 38.625 28.5 38.625ZM28.5 36.375C30.15 36.375 31.6312 35.9203 32.9437 35.0109C34.2562 34.1016 35.2125 32.9156 35.8125 31.4531C35.4375 31.5469 35.0625 31.6219 34.6875 31.6781C34.3125 31.7344 33.9375 31.7625 33.5625 31.7625C31.2563 31.7625 29.2922 30.9516 27.6703 29.3297C26.0484 27.7078 25.2375 25.7438 25.2375 23.4375C25.2375 23.0625 25.2656 22.6875 25.3219 22.3125C25.3781 21.9375 25.4531 21.5625 25.5469 21.1875C24.0844 21.7875 22.8984 22.7438 21.9891 24.0563C21.0797 25.3688 20.625 26.85 20.625 28.5C20.625 30.675 21.3938 32.5312 22.9313 34.0687C24.4688 35.6062 26.325 36.375 28.5 36.375Z" fill="#1C1B1F"/>
</g>
</g>
</g>
</svg>
