<svg width="57" height="57" viewBox="0 0 57 57" fill="none" xmlns="http://www.w3.org/2000/svg">
<g id="light_mode_btn">
<rect id="Rectangle 61" width="57" height="57" rx="6" fill="#282828"/>
<g id="light_mode">
<mask id="mask0_27_8" style="mask-type:alpha" maskUnits="userSpaceOnUse" x="15" y="15" width="27" height="27">
<rect id="Bounding box" x="15" y="15" width="27" height="27" fill="white"/>
</mask>
<g mask="url(#mask0_27_8)">
<path id="light_mode_2" d="M28.5 31.875C29.4375 31.875 30.2344 31.5469 30.8906 30.8906C31.5469 30.2344 31.875 29.4375 31.875 28.5C31.875 27.5625 31.5469 26.7656 30.8906 26.1094C30.2344 25.4531 29.4375 25.125 28.5 25.125C27.5625 25.125 26.7656 25.4531 26.1094 26.1094C25.4531 26.7656 25.125 27.5625 25.125 28.5C25.125 29.4375 25.4531 30.2344 26.1094 30.8906C26.7656 31.5469 27.5625 31.875 28.5 31.875ZM28.5 34.125C26.9438 34.125 25.6172 33.5766 24.5203 32.4797C23.4234 31.3828 22.875 30.0562 22.875 28.5C22.875 26.9438 23.4234 25.6172 24.5203 24.5203C25.6172 23.4234 26.9438 22.875 28.5 22.875C30.0562 22.875 31.3828 23.4234 32.4797 24.5203C33.5766 25.6172 34.125 26.9438 34.125 28.5C34.125 30.0562 33.5766 31.3828 32.4797 32.4797C31.3828 33.5766 30.0562 34.125 28.5 34.125ZM17.25 29.625C16.9312 29.625 16.6641 29.5172 16.4484 29.3016C16.2328 29.0859 16.125 28.8188 16.125 28.5C16.125 28.1812 16.2328 27.9141 16.4484 27.6984C16.6641 27.4828 16.9312 27.375 17.25 27.375H19.5C19.8187 27.375 20.0859 27.4828 20.3016 27.6984C20.5172 27.9141 20.625 28.1812 20.625 28.5C20.625 28.8188 20.5172 29.0859 20.3016 29.3016C20.0859 29.5172 19.8187 29.625 19.5 29.625H17.25ZM37.5 29.625C37.1812 29.625 36.9141 29.5172 36.6984 29.3016C36.4828 29.0859 36.375 28.8188 36.375 28.5C36.375 28.1812 36.4828 27.9141 36.6984 27.6984C36.9141 27.4828 37.1812 27.375 37.5 27.375H39.75C40.0688 27.375 40.3359 27.4828 40.5516 27.6984C40.7672 27.9141 40.875 28.1812 40.875 28.5C40.875 28.8188 40.7672 29.0859 40.5516 29.3016C40.3359 29.5172 40.0688 29.625 39.75 29.625H37.5ZM28.5 20.625C28.1812 20.625 27.9141 20.5172 27.6984 20.3016C27.4828 20.0859 27.375 19.8187 27.375 19.5V17.25C27.375 16.9312 27.4828 16.6641 27.6984 16.4484C27.9141 16.2328 28.1812 16.125 28.5 16.125C28.8188 16.125 29.0859 16.2328 29.3016 16.4484C29.5172 16.6641 29.625 16.9312 29.625 17.25V19.5C29.625 19.8187 29.5172 20.0859 29.3016 20.3016C29.0859 20.5172 28.8188 20.625 28.5 20.625ZM28.5 40.875C28.1812 40.875 27.9141 40.7672 27.6984 40.5516C27.4828 40.3359 27.375 40.0688 27.375 39.75V37.5C27.375 37.1812 27.4828 36.9141 27.6984 36.6984C27.9141 36.4828 28.1812 36.375 28.5 36.375C28.8188 36.375 29.0859 36.4828 29.3016 36.6984C29.5172 36.9141 29.625 37.1812 29.625 37.5V39.75C29.625 40.0688 29.5172 40.3359 29.3016 40.5516C29.0859 40.7672 28.8188 40.875 28.5 40.875ZM21.3563 22.9313L20.1469 21.75C19.9219 21.5437 19.8141 21.2812 19.8234 20.9625C19.8328 20.6438 19.9406 20.3719 20.1469 20.1469C20.3719 19.9219 20.6438 19.8094 20.9625 19.8094C21.2812 19.8094 21.5437 19.9219 21.75 20.1469L22.9313 21.3563C23.1375 21.5813 23.2406 21.8438 23.2406 22.1437C23.2406 22.4437 23.1375 22.7063 22.9313 22.9313C22.725 23.1562 22.4672 23.2641 22.1578 23.2547C21.8484 23.2453 21.5813 23.1375 21.3563 22.9313ZM35.25 36.8531L34.0688 35.6438C33.8625 35.4188 33.7594 35.1516 33.7594 34.8422C33.7594 34.5328 33.8625 34.275 34.0688 34.0688C34.275 33.8438 34.5328 33.7359 34.8422 33.7453C35.1516 33.7547 35.4188 33.8625 35.6438 34.0688L36.8531 35.25C37.0781 35.4562 37.1859 35.7188 37.1766 36.0375C37.1672 36.3563 37.0594 36.6281 36.8531 36.8531C36.6281 37.0781 36.3563 37.1906 36.0375 37.1906C35.7188 37.1906 35.4562 37.0781 35.25 36.8531ZM34.0688 22.9313C33.8438 22.725 33.7359 22.4672 33.7453 22.1578C33.7547 21.8484 33.8625 21.5813 34.0688 21.3563L35.25 20.1469C35.4562 19.9219 35.7188 19.8141 36.0375 19.8234C36.3563 19.8328 36.6281 19.9406 36.8531 20.1469C37.0781 20.3719 37.1906 20.6438 37.1906 20.9625C37.1906 21.2812 37.0781 21.5437 36.8531 21.75L35.6438 22.9313C35.4188 23.1375 35.1562 23.2406 34.8562 23.2406C34.5562 23.2406 34.2937 23.1375 34.0688 22.9313ZM20.1469 36.8531C19.9219 36.6281 19.8094 36.3563 19.8094 36.0375C19.8094 35.7188 19.9219 35.4562 20.1469 35.25L21.3563 34.0688C21.5813 33.8625 21.8484 33.7594 22.1578 33.7594C22.4672 33.7594 22.725 33.8625 22.9313 34.0688C23.1562 34.275 23.2641 34.5328 23.2547 34.8422C23.2453 35.1516 23.1375 35.4188 22.9313 35.6438L21.75 36.8531C21.5437 37.0781 21.2812 37.1859 20.9625 37.1766C20.6438 37.1672 20.3719 37.0594 20.1469 36.8531Z" fill="white"/>
</g>
</g>
</g>
</svg>
